# xmcd CD database file
#
# Track frame offsets:
#	150
#	36937
#	75450
#	109830
#	132082
#	161047
#	199510
#
# Disc length: 3168 seconds
#
# Revision: 2
# Processed by: cddbd v1.5PL3 Copyright (c) Steve Scherf et al.
# Submitted via: CdAid (MTCDDB.DLL V2003.12.21)
#
DISCID=520c5e07
DTITLE=Johnny Lytle - Moonchild
DYEAR=1991
DGENRE=Jazz
TTITLE0=Meet Ben Bailey
TTITLE1=Caravan
TTITLE2=Here´s that rainy day
TTITLE3=Watch what happens
TTITLE4=Moonchild
TTITLE5=I don´t want to leave you
TTITLE6=Well you needn´t
EXTD=ID3G:   8 YEAR: 1991
EXTT0=
EXTT1=
EXTT2=
EXTT3=
EXTT4=
EXTT5=
EXTT6=
PLAYORDER=
